<?xml version="1.0" standalone="no"?>
<!DOCTYPE svg PUBLIC "-//W3C//DTD SVG 20010904//EN"
 "http://www.w3.org/TR/2001/REC-SVG-20010904/DTD/svg10.dtd">
<svg version="1.0" xmlns="http://www.w3.org/2000/svg"
 width="779.000000pt" height="855.000000pt" viewBox="0 0 779.000000 855.000000"
 preserveAspectRatio="xMidYMid meet">

<g transform="translate(0.000000,855.000000) scale(0.100000,-0.100000)"
fill="#000000" stroke="none">
<path d="M320 5912 l0 -1522 968 -2 967 -3 3 -1178 2 -1178 -334 3 c-184 2
-338 7 -342 11 -5 4 -10 411 -12 903 l-4 894 -625 0 -625 0 5 -1192 c3 -790 9
-1212 16 -1248 6 -30 29 -93 52 -139 60 -121 151 -211 279 -273 52 -26 122
-52 154 -57 84 -15 2106 -15 2195 0 37 6 104 29 151 51 146 70 276 222 333
391 21 61 21 74 27 1537 l5 1475 845 6 c531 4 878 10 935 18 236 29 511 103
685 184 169 78 184 82 174 40 -13 -51 -91 -197 -154 -286 -114 -158 -272 -288
-461 -375 -179 -83 -222 -89 -674 -97 -192 -3 -450 -8 -572 -11 l-223 -6 0
-624 0 -624 463 0 c573 0 811 11 984 45 541 108 1020 387 1383 806 477 550
678 1311 535 2025 -59 294 -194 619 -359 864 -226 336 -535 615 -887 804 -288
153 -575 238 -864 256 -101 6 -1157 12 -2597 17 l-2428 6 0 -1521z m4655 248
l320 -9 76 -30 c163 -63 378 -186 379 -216 0 -14 -139 -106 -216 -144 -87 -43
-151 -67 -253 -96 l-90 -25 -1804 0 -1804 0 -7 61 c-3 34 -6 154 -6 265 l0
204 1543 0 c848 -1 1686 -5 1862 -10z"/>
</g>
</svg>
